<?xml version="1.0" encoding="UTF-8"?>
<svg id="Camada_2" data-name="Camada 2" xmlns="http://www.w3.org/2000/svg" xmlns:xlink="http://www.w3.org/1999/xlink" viewBox="0 0 517.76 204.57">
  <defs>
    <style>
      .cls-1 {
        fill: url(#Gradiente_sem_nome_21);
      }

      .cls-2 {
        fill: #fff;
      }
    </style>
    <linearGradient id="Gradiente_sem_nome_21" data-name="Gradiente sem nome 21" x1="489.82" y1="156.74" x2="515.86" y2="6.62" gradientUnits="userSpaceOnUse">
      <stop offset="0" stop-color="#6366f1"/>
      <stop offset="1" stop-color="#818cf8"/>
    </linearGradient>
  </defs>
  <g id="Camada_1-2" data-name="Camada 1">
    <g>
      <path class="cls-2" d="M341.33,154.16L394.13,1.36h32.26l53.61,152.8h-30.67s-24.41-73.84-24.41-73.84c-2.94-9.57-5.93-19.91-8.97-31.02-3.04-11.11-6.27-23.33-9.69-36.66h7.18c-3.35,13.33-6.46,25.59-9.33,36.77-2.87,11.18-5.74,21.48-8.61,30.92l-23.89,73.84h-30.26ZM370.05,119.19v-24.71h81.22v24.71h-81.22Z"/>
      <path class="cls-1" d="M517.76,1.36v152.8h-28.49V1.36h28.49Z"/>
      <path class="cls-2" d="M63.43,157.31c-11.2,0-21.3-1.98-30.3-5.93-9-3.95-16.38-9.62-22.16-17.01-5.78-7.39-9.43-16.19-10.97-26.41l29.82-4.41c2.1,8.68,6.44,15.37,13.02,20.06,6.58,4.69,14.07,7.04,22.47,7.04,4.69,0,9.24-.73,13.65-2.2,4.41-1.47,8.03-3.64,10.87-6.51,2.84-2.87,4.25-6.41,4.25-10.61,0-1.54-.23-3.03-.68-4.46-.46-1.43-1.21-2.78-2.26-4.04-1.05-1.26-2.54-2.45-4.46-3.57-1.93-1.12-4.36-2.14-7.3-3.05l-39.28-11.55c-2.94-.84-6.35-2.03-10.24-3.57-3.89-1.54-7.65-3.75-11.29-6.62-3.64-2.87-6.67-6.67-9.08-11.39-2.42-4.73-3.62-10.69-3.62-17.9,0-10.15,2.55-18.59,7.67-25.31,5.11-6.72,11.94-11.72,20.48-15.02C42.57,1.54,52.02-.07,62.38,0c10.43.14,19.74,1.93,27.93,5.36,8.19,3.43,15.05,8.42,20.58,14.96,5.53,6.55,9.52,14.54,11.97,24l-30.87,5.25c-1.12-4.9-3.19-9.03-6.2-12.39-3.01-3.36-6.6-5.92-10.76-7.67-4.17-1.75-8.52-2.69-13.07-2.84-4.48-.14-8.7.47-12.65,1.84-3.96,1.36-7.18,3.34-9.66,5.93-2.49,2.59-3.73,5.67-3.73,9.24,0,3.29,1.01,5.97,3.05,8.03,2.03,2.07,4.58,3.73,7.67,4.99,3.08,1.26,6.23,2.31,9.45,3.15l26.25,7.14c3.92,1.05,8.26,2.43,13.02,4.15,4.76,1.72,9.33,4.09,13.7,7.14,4.37,3.05,7.98,7.05,10.82,12.02,2.84,4.97,4.25,11.27,4.25,18.9,0,8.12-1.7,15.21-5.09,21.27-3.4,6.06-7.96,11.06-13.7,15.02-5.74,3.96-12.23,6.91-19.48,8.87-7.25,1.96-14.72,2.94-22.42,2.94Z"/>
      <path class="cls-2" d="M192.49,157.31c-11.62,0-21.86-2.5-30.72-7.51-8.86-5-15.79-11.9-20.79-20.69-5.01-8.79-7.51-18.85-7.51-30.19,0-12.39,2.45-23.17,7.35-32.35,4.9-9.17,11.66-16.29,20.27-21.37,8.61-5.08,18.52-7.61,29.72-7.61,11.9,0,22.02,2.8,30.35,8.4,8.33,5.6,14.49,13.48,18.48,23.63,3.99,10.15,5.39,22.09,4.2,35.81h-28.25v-10.5c0-11.55-1.84-19.86-5.51-24.94-3.68-5.07-9.68-7.61-18.01-7.61-9.73,0-16.89,2.96-21.48,8.87-4.59,5.92-6.88,14.65-6.88,26.2,0,10.57,2.29,18.74,6.88,24.52,4.58,5.78,11.32,8.66,20.22,8.66,5.6,0,10.4-1.22,14.39-3.68,3.99-2.45,7.04-5.98,9.14-10.61l28.56,8.19c-4.27,10.36-11.01,18.41-20.22,24.15-9.21,5.74-19.27,8.61-30.19,8.61ZM154.9,105.44v-21.21h75.19v21.21h-75.19Z"/>
      <path class="cls-2" d="M271.36,204.57l20.84-60.07.42,17.64-49.36-121.4h29.61l33.18,85.9h-6.72l31.97-85.9h28.56l-62.06,163.82h-26.46Z"/>
    </g>
  </g>
</svg>